<?xml version="1.0" encoding="UTF-8" standalone="no"?>
<!-- Created with Inkscape (http://www.inkscape.org/) -->

<svg
   width="250"
   height="55"
   viewBox="0 0 66.145832 14.552084"
   version="1.1"
   id="svg5"
   inkscape:version="1.1.2 (0a00cf5339, 2022-02-04)"
   sodipodi:docname="test-dark.svg"
   xmlns:inkscape="http://www.inkscape.org/namespaces/inkscape"
   xmlns:sodipodi="http://sodipodi.sourceforge.net/DTD/sodipodi-0.dtd"
   xmlns="http://www.w3.org/2000/svg"
   xmlns:svg="http://www.w3.org/2000/svg">
  <sodipodi:namedview
     id="namedview7"
     pagecolor="#ffffff"
     bordercolor="#666666"
     borderopacity="1.0"
     inkscape:pageshadow="2"
     inkscape:pageopacity="0.0"
     inkscape:pagecheckerboard="0"
     inkscape:document-units="mm"
     showgrid="false"
     units="px"
     width="250px"
     inkscape:zoom="2.54"
     inkscape:cx="168.70079"
     inkscape:cy="-3.9370079"
     inkscape:window-width="1366"
     inkscape:window-height="731"
     inkscape:window-x="0"
     inkscape:window-y="0"
     inkscape:window-maximized="1"
     inkscape:current-layer="layer2" />
  <defs
     id="defs2">
    <rect
       x="31.008767"
       y="86.173817"
       width="215.81588"
       height="66.255437"
       id="rect2739" />
  </defs>
  <g
     inkscape:groupmode="layer"
     id="layer2"
     inkscape:label="Layer 2"
     style="display:inline">
    <g
       aria-label="PeerLink"
       transform="matrix(0.26458333,0,0,0.26458333,0.95114933,-21.887735)"
       id="text2737-3"
       style="font-size:40px;line-height:1.25;font-family:Gotham;-inkscape-font-specification:'Gotham, Normal';white-space:pre;shape-inside:url(#rect2739);display:inline;fill:#808000">
      <path
         d="m 56.527812,105.74282 v -0.08 q 0,-2.16 -0.76,-3.92 -0.72,-1.800003 -2.12,-3.080003 -1.36,-1.28 -3.36,-1.96 -1.96,-0.72 -4.48,-0.72 h -11.44 v 28.000003 h 6.160001 v -8.4 h 4.68 q 2.36,0 4.4,-0.6 2.079999,-0.64 3.6,-1.88 1.559999,-1.24 2.439999,-3.08 0.88,-1.84 0.88,-4.28 z m -6.24,0.12 q 0,1.8 -1.28,3.04 -1.28,1.2 -3.6,1.2 h -4.879999 v -8.56 h 4.759999 q 2.320001,0 3.640001,1.08 1.359999,1.08 1.359999,3.16 z"
         id="path831-6"
         style="fill:#ececec;fill-opacity:1" />
      <path
         d="m 80.447783,113.86282 v -0.08 q 0,-2.28 -0.64,-4.36 -0.6,-2.12 -1.92,-3.72 -1.28,-1.64 -3.24,-2.6 -1.96,-0.96 -4.64,-0.96 -2.36,0 -4.32,0.88 -1.92,0.88 -3.32,2.4 -1.4,1.52 -2.2,3.56 -0.76,2.04 -0.76,4.32 v 0.08 q 0,2.48 0.84,4.52 0.84,2 2.32,3.48 1.52,1.48 3.56,2.28 2.08,0.8 4.48,0.8 2.92,0 5.08,-1.04 2.16,-1.08 3.68,-2.96 l -3.48,-3.08 q -1.28,1.16 -2.48,1.68 -1.2,0.52 -2.72,0.52 -2.04,0 -3.44,-1.04 -1.36,-1.08 -1.8,-3.16 h 14.92 q 0.04,-0.44 0.04,-0.76 0.04,-0.32 0.04,-0.76 z m -5.92,-2.28 h -9.16 q 0.36,-2.08 1.52,-3.32 1.2,-1.24 3.12,-1.24 1.92,0 3.08,1.28 1.16,1.24 1.44,3.28 z"
         id="path833-7"
         style="fill:#ececec;fill-opacity:1" />
      <path
         d="m 104.96774,113.86282 v -0.08 q 0,-2.28 -0.64,-4.36 -0.6,-2.12 -1.92,-3.72 -1.28,-1.64 -3.239998,-2.6 -1.96,-0.96 -4.64,-0.96 -2.36,0 -4.32,0.88 -1.92,0.88 -3.32,2.4 -1.4,1.52 -2.2,3.56 -0.76,2.04 -0.76,4.32 v 0.08 q 0,2.48 0.84,4.52 0.84,2 2.32,3.48 1.52,1.48 3.56,2.28 2.08,0.8 4.48,0.8 2.92,0 5.079998,-1.04 2.16,-1.08 3.68,-2.96 l -3.48,-3.08 q -1.279998,1.16 -2.479998,1.68 -1.2,0.52 -2.72,0.52 -2.04,0 -3.44,-1.04 -1.36,-1.08 -1.8,-3.16 h 14.919998 q 0.04,-0.44 0.04,-0.76 0.04,-0.32 0.04,-0.76 z m -5.919998,-2.28 h -9.16 q 0.36,-2.08 1.52,-3.32 1.2,-1.24 3.12,-1.24 1.92,0 3.08,1.28 1.16,1.24 1.44,3.28 z"
         id="path835-5"
         style="fill:#ececec;fill-opacity:1" />
      <path
         d="m 122.4077,108.50282 v -6.36 q -2.72,-0.12 -4.32,1.2 -1.6,1.32 -2.52,3.52 v -4.32 h -6.08 v 21.44 h 6.08 v -7.92 q 0,-3.88 1.72,-5.72 1.76,-1.84 4.8,-1.84 z"
         id="path837-3"
         style="fill:#ececec;fill-opacity:1" />
      <path
         d="m 146.96767,123.98282 v -5.6 h -13.96 V 95.982817 h -6.16 v 28.000003 z"
         style="fill:#c844a0;fill-opacity:1"
         id="path839-5" />
      <path
         d="m 157.48765,100.18282 v -5.400003 h -6.4 v 5.400003 z m -0.16,23.8 v -21.44 h -6.08 v 21.44 z"
         style="fill:#c844a0;fill-opacity:1"
         id="path841-6" />
      <path
         d="m 182.68758,123.98282 v -13.88 q 0,-3.72 -1.92,-5.84 -1.88,-2.12 -5.36,-2.12 -1.16,0 -2.08,0.28 -0.92,0.28 -1.68,0.76 -0.76,0.48 -1.4,1.12 -0.6,0.6 -1.12,1.28 v -3.04 h -6.08 v 21.44 h 6.08 v -11.96 q 0,-2.16 1,-3.24 1.04,-1.12 2.8,-1.12 1.76,0 2.72,1.12 0.96,1.08 0.96,3.24 v 11.96 z"
         style="fill:#c844a0;fill-opacity:1"
         id="path843-2" />
      <path
         d="m 208.72754,123.98282 -8.44,-13 8.16,-8.44 h -7.28 l -7.12,7.8 V 94.782817 h -6.08 v 29.200003 h 6.08 v -6.52 l 2.12,-2.24 5.6,8.76 z"
         style="fill:#c844a0;fill-opacity:1"
         id="path845-9" />
    </g>
    <g
       aria-label="®"
       id="text25504-1"
       style="font-size:3.52778px;line-height:1.25;font-family:Gotham;-inkscape-font-specification:'Gotham, Normal';display:inline;fill:#ececec;stroke-width:0.264583;fill-opacity:1"
       transform="translate(0.52916667)">
      <path
         d="m 58.449173,4.4979648 q 0,-0.2610557 -0.09878,-0.4938892 Q 58.251617,3.7712421 58.078756,3.5983809 57.909423,3.4255197 57.676589,3.3267418 57.443756,3.2244362 57.175644,3.2244362 q -0.268111,0 -0.504472,0.1023056 -0.232834,0.1023056 -0.405695,0.2786946 -0.172861,0.1728613 -0.271639,0.4056947 -0.09878,0.2328335 -0.09878,0.4938893 0,0.2610557 0.09878,0.4938892 0.09878,0.2328334 0.268111,0.4056947 0.172862,0.1728612 0.405695,0.2751668 0.232834,0.098778 0.500945,0.098778 0.268111,0 0.500945,-0.1023057 0.236361,-0.1023056 0.409222,-0.2751668 0.172861,-0.176389 0.271639,-0.4092225 0.09878,-0.2328335 0.09878,-0.4938892 z m -0.148167,0 q 0,0.2363613 -0.08819,0.4445003 -0.08467,0.2046112 -0.236362,0.3598335 -0.151694,0.1552224 -0.359833,0.2469446 -0.204611,0.088195 -0.448028,0.088195 -0.239889,0 -0.448028,-0.088195 -0.204611,-0.088195 -0.356306,-0.239889 -0.151695,-0.1552223 -0.236361,-0.3598336 -0.08467,-0.208139 -0.08467,-0.4445002 0,-0.2363613 0.08467,-0.4409726 0.08819,-0.208139 0.239889,-0.3633613 0.151694,-0.1552223 0.356306,-0.2434168 0.208139,-0.091722 0.451555,-0.091722 0.239889,0 0.444501,0.088194 0.208139,0.088195 0.356305,0.2434168 0.151695,0.1516946 0.236362,0.3598336 0.08819,0.2046112 0.08819,0.4409727 z M 57.782423,4.2333813 q 0,-0.2116668 -0.144639,-0.3280836 -0.144639,-0.1199445 -0.388056,-0.1199445 h -0.603251 v 1.3581953 h 0.299862 V 4.7061038 H 57.1827 l 0.289278,0.4374447 h 0.34925 L 57.489617,4.6567149 q 0.130528,-0.049389 0.211667,-0.1516945 0.08114,-0.1023057 0.08114,-0.2716391 z m -0.303389,0.017639 q 0,0.088195 -0.05997,0.144639 -0.05997,0.052917 -0.172861,0.052917 H 56.946339 V 4.0499367 h 0.292805 q 0.112889,0 0.176389,0.049389 0.0635,0.049389 0.0635,0.1516946 z"
         id="path828-2"
         style="fill:#ececec;fill-opacity:1" />
    </g>
  </g>
</svg>
